# xmcd CD database file
#
# Track frame offsets:
#	6816
#	15478
#	34948
#	51209
#	63500
#	81820
#	99275
#	111462
#	123373
#	146674
#	165387
#	183952
#	199270
#	213073
#	235270
#
# Disc length: 3320 seconds
#
# Revision: 0
# Processed by: cddbd v1.5.2PL0 Copyright (c) Steve Scherf et al.
# Submitted via: CDex 1.51
#
DISCID=cf0c9e0f
DTITLE=Back On The Road - Best Before
DYEAR=2014
DGENRE=Blues
TTITLE0=Bad Beer Blues
TTITLE1=Get Back
TTITLE2=Who Will Be Your Next
TTITLE3=You`re Stealing My Time
TTITLE4=Lying Wife
TTITLE5=Do You Smell What`s Cookin'
TTITLE6=If I Was No King
TTITLE7=Ring Down The Mule
TTITLE8=Lonesome Cowboy
TTITLE9=Working Hard For A Living
TTITLE10=Truckful Of Load
TTITLE11=The Worker`s Son
TTITLE12=Girl You Make Me Sick
TTITLE13=Listen To The Blues
TTITLE14=The Tavern Song
EXTD=YEAR: 2014
EXTT0=
EXTT1=
EXTT2=
EXTT3=
EXTT4=
EXTT5=
EXTT6=
EXTT7=
EXTT8=
EXTT9=
EXTT10=
EXTT11=
EXTT12=
EXTT13=
EXTT14=
PLAYORDER=
